<svg width="775" height="655" viewBox="0 0 775 655" fill="none" xmlns="http://www.w3.org/2000/svg">
<path d="M631.495 654.727H143.323C105.113 654.727 74 623.627 74 585.435V97.2996C74 59.1072 105.113 28.0077 143.323 28.0077H631.495C669.705 28.0077 700.818 59.1072 700.818 97.2996V585.253C701 623.627 669.887 654.727 631.495 654.727ZM143.323 66.382C126.22 66.382 112.391 80.204 112.391 97.2996V585.253C112.391 602.349 126.22 616.171 143.323 616.171H631.495C648.598 616.171 662.427 602.349 662.427 585.253V97.2996C662.427 80.204 648.598 66.382 631.495 66.382H143.323Z" fill="#676B74"/>
<path d="M527.42 131.673C519.232 131.673 512.682 125.126 512.682 116.942V14.7314C512.682 6.54727 519.232 0 527.42 0C535.607 0 542.158 6.54727 542.158 14.7314V116.76C542.158 124.944 535.607 131.673 527.42 131.673V131.673ZM245.943 131.673C237.755 131.673 231.205 125.126 231.205 116.942V14.7314C231.205 6.54727 237.755 0 245.943 0C254.131 0 260.681 6.54727 260.681 14.7314V116.76C260.863 124.944 254.131 131.673 245.943 131.673V131.673ZM405.149 461.583C344.014 461.583 294.342 411.932 294.342 350.825C294.342 289.717 344.014 240.067 405.149 240.067C432.806 240.067 459.188 250.251 479.567 268.802C482.114 270.984 482.296 274.985 479.931 277.35C477.747 279.896 473.744 280.078 471.379 277.713C453.184 261.163 429.712 252.07 405.149 252.07C350.746 252.07 306.532 296.264 306.532 350.643C306.532 405.021 350.746 449.215 405.149 449.215C429.712 449.215 453.184 440.122 471.379 423.572C473.926 421.39 477.747 421.571 479.931 423.936C482.114 426.482 481.932 430.301 479.567 432.484C459.188 451.398 432.806 461.583 405.149 461.583V461.583Z" fill="#676B74"/>
<path d="M775 341L-1.81784e-05 341" stroke="#D82B2B" stroke-width="48"/>
</svg>
