<?xml version="1.0" standalone="no"?>
<!DOCTYPE svg PUBLIC "-//W3C//DTD SVG 20010904//EN"
 "http://www.w3.org/TR/2001/REC-SVG-20010904/DTD/svg10.dtd">
<svg version="1.0" xmlns="http://www.w3.org/2000/svg"
 width="775.000000pt" height="775.000000pt" viewBox="0 0 775.000000 775.000000"
 preserveAspectRatio="xMidYMid meet">
<metadata>
Created by potrace 1.11, written by Peter Selinger 2001-2013
</metadata>
<g transform="translate(0.000000,775.000000) scale(0.100000,-0.100000)"
fill="#000000" stroke="none">
<path d="M2395 7135 c-59 -32 -88 -88 -85 -167 4 -96 5 -94 -47 -97 -26 -1
-50 -4 -55 -7 -4 -3 -8 -1 -8 5 0 7 -8 7 -24 1 -13 -5 -26 -6 -29 -3 -3 3 -48
5 -99 4 -51 -1 -115 -1 -143 -1 -27 0 -79 0 -115 -1 -36 0 -71 0 -77 0 -11 1
-55 1 -120 1 -10 0 -52 0 -93 0 -90 1 -167 -6 -235 -21 -57 -13 -196 -77 -240
-111 -37 -28 -122 -113 -153 -153 -22 -29 -73 -119 -78 -140 -2 -5 -10 -29
-19 -53 -8 -24 -18 -59 -21 -79 -3 -19 -7 -45 -10 -56 -3 -16 -5 -772 -2 -877
0 -8 -1 -116 -2 -240 -1 -124 -1 -230 0 -235 2 -6 2 -216 1 -467 l-1 -458
-370 0 -370 0 0 -240 0 -240 370 0 371 0 0 -92 c0 -51 0 -100 0 -108 0 -8 0
-44 -1 -80 -1 -69 -2 -514 -2 -540 1 -8 1 -260 0 -560 0 -300 0 -549 0 -555 2
-143 10 -386 15 -405 38 -176 142 -334 284 -431 69 -48 182 -97 258 -112 59
-12 460 -14 2582 -14 2445 -1 2515 0 2595 19 46 10 93 25 105 33 12 8 27 15
32 15 12 0 105 56 134 80 66 54 157 158 157 178 0 6 4 12 8 14 11 5 59 109 72
159 7 24 15 53 18 64 4 11 8 477 9 1035 1 558 2 1079 3 1158 l0 142 370 0 370
0 0 240 0 240 -370 0 -370 0 0 293 c-1 160 -2 684 -3 1162 l-2 870 -28 78
c-47 131 -98 211 -194 302 -83 79 -209 147 -320 171 -37 8 -159 14 -263 14
-47 0 -101 0 -120 1 -19 0 -41 0 -47 -1 -23 -1 -33 -1 -288 0 -27 0 -79 0
-115 -1 -36 0 -72 0 -80 0 -8 1 -40 1 -72 2 l-56 0 0 85 c0 76 -3 90 -27 125
-44 68 -125 87 -195 48 -53 -30 -73 -78 -73 -178 l-1 -80 -65 -1 c-36 0 -79
-1 -96 -1 -16 0 -68 0 -115 0 -47 0 -92 0 -100 0 -8 1 -44 1 -80 0 -36 0 -72
0 -80 0 -12 1 -137 0 -190 0 -30 0 -206 1 -240 2 -19 0 -41 0 -47 -1 -19 -1
-37 -1 -143 -1 -52 0 -106 0 -120 0 -14 0 -68 1 -121 2 -53 1 -100 -1 -105 -3
-5 -3 -18 -4 -29 -1 -11 2 -60 3 -110 3 -106 -1 -124 -1 -210 -1 -36 0 -71 0
-77 0 -7 0 -56 1 -109 2 -53 1 -100 -1 -105 -3 -5 -3 -18 -4 -29 -1 -11 2 -60
3 -110 3 -242 -2 -235 -3 -236 23 -4 157 -14 192 -66 231 -35 26 -110 31 -148
11z m-84 -670 c0 -11 0 -132 0 -270 0 -232 2 -252 21 -286 25 -45 65 -69 120
-73 58 -4 118 31 141 84 7 15 12 123 13 280 1 140 3 262 3 271 1 14 113 16
1254 14 688 -1 1255 -3 1258 -4 3 0 6 -121 6 -268 0 -223 2 -273 15 -298 50
-96 174 -109 245 -26 32 37 35 61 37 343 l1 253 465 -1 c256 -1 474 -3 485 -6
11 -3 35 -9 53 -13 17 -4 32 -11 32 -16 0 -5 7 -9 15 -9 8 0 15 -4 15 -10 0
-5 5 -10 11 -10 18 0 66 -61 96 -120 l27 -55 1 -1120 c1 -616 -1 -1126 -3
-1132 -6 -17 -3492 -19 -3492 -2 0 6 18 48 41 92 124 248 350 434 619 510 149
42 379 43 520 2 121 -35 330 -141 330 -167 0 -4 6 -8 13 -8 7 0 26 -13 42 -30
20 -21 38 -30 61 -30 36 0 51 13 58 53 4 22 -3 34 -42 68 -41 36 -105 82 -177
126 -69 43 -211 96 -318 119 -94 21 -303 25 -405 9 -45 -7 -85 -16 -90 -19 -4
-3 -19 -7 -33 -9 -48 -9 -187 -68 -255 -109 -142 -85 -274 -207 -351 -325 -21
-32 -40 -60 -43 -63 -9 -9 -78 -153 -91 -192 l-13 -38 -936 0 -935 0 1 1128
c1 620 4 1138 7 1150 9 34 54 108 86 141 26 26 78 59 98 63 5 0 23 6 41 12 23
8 172 12 493 12 454 -1 459 -1 460 -21z m646 -3000 c7 -58 44 -181 80 -265
110 -258 326 -470 591 -580 202 -85 392 -104 642 -64 46 7 154 41 207 65 24
10 45 19 48 19 15 0 177 105 215 139 25 22 48 41 51 41 3 0 11 12 18 27 10 23
9 30 -7 52 -10 14 -29 27 -41 29 -20 3 -78 -31 -106 -62 -22 -24 -144 -97
-212 -125 -144 -62 -225 -76 -413 -75 -118 1 -159 5 -220 23 -41 12 -82 23
-90 25 -32 8 -164 77 -220 115 -179 122 -309 293 -380 496 -23 64 -27 79 -36
138 l-7 37 1774 -2 1774 -3 0 -1110 c1 -632 -3 -1129 -8 -1155 -17 -81 -80
-162 -159 -204 -62 -33 -111 -39 -278 -36 -8 0 -62 0 -120 0 -58 0 -112 0
-120 0 -8 0 -98 0 -200 0 -102 0 -192 0 -200 0 -8 0 -62 0 -120 0 -58 0 -112
0 -120 0 -8 0 -98 0 -200 0 -102 0 -192 0 -200 0 -8 0 -62 0 -120 0 -58 0
-112 0 -120 0 -8 0 -98 0 -200 0 -102 0 -192 0 -200 0 -8 0 -62 0 -120 0 -58
0 -112 0 -120 0 -8 0 -62 0 -120 0 -58 0 -114 0 -125 0 -17 0 -282 1 -325 1
-8 0 -188 0 -400 0 -212 0 -389 0 -395 0 -20 -1 -221 -1 -240 -1 -102 1 -553
1 -565 1 -8 -1 -80 -1 -160 -1 -156 1 -155 1 -215 -1 -169 -3 -287 72 -335
216 -12 33 -14 246 -15 1160 -1 616 0 1123 2 1128 3 4 414 6 915 5 l911 -3 4
-30z"/>
</g>
</svg>
